# xmcd
#
# Track frame offsets:
#	150
#	18732
#	36344
#	59736
#	70807
#	88498
#	102441
#	116358
#	136125
#	155970
#	170576
#	187509
#	202953
#	219960
#	237496
#	259536
#	273227
#	290810
#	305126
#	316197
#	330140
#
# Disc length: 4634 seconds
#
# Revision: 2
# Processed by: cddbd v1.5.2PL0 Copyright (c) Steve Scherf et al.
# Submitted via: audiograbber 1.83.01
#
DISCID=39121815
DTITLE=Various Artist - TT083
DYEAR=2004
DGENRE=Karaoke
TTITLE0=McClinton, Delbert - All Night Long
TTITLE1=Montgomery, John Michael - Even Then
TTITLE2=Brooks, Garth - Friends In Low Places (Third Verse Version)
TTITLE3=Lonzo And Oscar - I Am My Own Grandpa
TTITLE4=Rascal Flatts - I'm Moving On
TTITLE5=Keith, Toby - I Wanna Talk About Me
TTITLE6=Brooks And Dunn - My Heart Is Lost To You
TTITLE7=Carson, Jeff - Real Life
TTITLE8=Ball, David - Riding With Private Malone
TTITLE9=Robinson, Charlie - Right Man For The Job
TTITLE10=Yates, Billy - Shadows
TTITLE11=Steele, Jeffrey - Something In The Water
TTITLE12=Montgomery, John Michael - The Little Girl
TTITLE13=Brooks And Dunn - The Long Goodbye
TTITLE14=Brooks, Garth - Thunder Rolls (Third Verse Version)
TTITLE15=Jackson, Alan - Tropical Depression
TTITLE16=Lonestar - With Me
TTITLE17=Paisley, Brad - Wrapped Around
TTITLE18=Lonzo And Oscar - I Am My Own Grandpa (Vocals)
TTITLE19=Keith, Toby - I Wanna Talk About Me (Vocals)
TTITLE20=Lonestar - With Me (Vocals)
EXTD=
EXTT0=
EXTT1=
EXTT2=
EXTT3=
EXTT4=
EXTT5=
EXTT6=
EXTT7=
EXTT8=
EXTT9=
EXTT10=
EXTT11=
EXTT12=
EXTT13=
EXTT14=
EXTT15=
EXTT16=
EXTT17=
EXTT18=
EXTT19=
EXTT20=
PLAYORDER=
